<svg version="1.1" viewBox="0.0 0.0 960.0 540.0" fill="none" stroke="none" stroke-linecap="square" stroke-miterlimit="10" xmlns:xlink="http://www.w3.org/1999/xlink" xmlns="http://www.w3.org/2000/svg"><clipPath id="g3d5b2204aaf_0_323.0"><path d="m0 0l960.0 0l0 540.0l-960.0 0l0 -540.0z" clip-rule="nonzero"/></clipPath><g clip-path="url(#g3d5b2204aaf_0_323.0)"><path fill="#ffffff" d="m0 0l960.0 0l0 540.0l-960.0 0z" fill-rule="evenodd"/><path fill="#000000" fill-opacity="0.0" d="m265.3198 230.58961l596.88184 0l0 192.85039l-596.88184 0z" fill-rule="evenodd"/><path fill="#595959" d="m280.6323 339.90524q0 -12.3125 4.984375 -21.625q4.984375 -9.3125 13.703125 -14.4375q8.734375 -5.140625 19.4375 -5.140625q10.5625 0 18.328125 4.546875q7.78125 4.546875 11.59375 11.4375l0 -14.671875l13.484375 0l0 80.375l-13.484375 0l0 -14.953125q-3.96875 7.03125 -11.8125 11.65625q-7.84375 4.609375 -18.25 4.609375q-10.71875 0 -19.375 -5.265625q-8.640625 -5.28125 -13.625 -14.8125q-4.984375 -9.53125 -4.984375 -21.71875zm68.046875 0.15625q0 -9.09375 -3.671875 -15.84375q-3.671875 -6.75 -9.90625 -10.34375q-6.21875 -3.59375 -13.703125 -3.59375q-7.484375 0 -13.640625 3.53125q-6.15625 3.515625 -9.828125 10.265625q-3.671875 6.75 -3.671875 15.828125q0 9.25 3.671875 16.078125q3.671875 6.8125 9.828125 10.40625q6.15625 3.59375 13.640625 3.59375q7.484375 0 13.703125 -3.59375q6.234375 -3.59375 9.90625 -10.40625q3.671875 -6.828125 3.671875 -15.921875zm107.34277 -40.046875l0 80.375l-13.34375 0l0 -11.875q-3.8125 6.15625 -10.640625 9.609375q-6.8125 3.4375 -15.015625 3.4375q-9.390625 0 -16.875 -3.875q-7.46875 -3.890625 -11.796875 -11.65625q-4.328125 -7.78125 -4.328125 -18.9375l0 -47.078125l13.203125 0l0 45.328125q0 11.875 6.0 18.265625q6.015625 6.375 16.4375 6.375q10.703125 0 16.859375 -6.59375q6.15625 -6.609375 6.15625 -19.21875l0 -44.15625l13.34375 0zm51.047516 81.6875q-9.25 0 -16.578125 -3.140625q-7.328125 -3.15625 -11.59375 -8.796875q-4.25 -5.65625 -4.6875 -12.984375l13.78125 0q0.59375 6.015625 5.65625 9.828125q5.0625 3.8125 13.265625 3.8125q7.625 0 12.015625 -3.375q4.40625 -3.375 4.40625 -8.515625q0 -5.265625 -4.6875 -7.828125q-4.6875 -2.578125 -14.515625 -5.0625q-8.953125 -2.359375 -14.59375 -4.765625q-5.640625 -2.421875 -9.6875 -7.1875q-4.03125 -4.765625 -4.03125 -12.546875q0 -6.15625 3.671875 -11.28125q3.671875 -5.140625 10.40625 -8.140625q6.75 -3.015625 15.40625 -3.015625q13.34375 0 21.546875 6.75q8.21875 6.75 8.8125 18.46875l-13.34375 0q-0.4375 -6.296875 -5.0625 -10.109375q-4.625 -3.8125 -12.390625 -3.8125q-7.1875 0 -11.4375 3.078125q-4.25 3.078125 -4.25 8.0625q0 3.953125 2.5625 6.53125q2.5625 2.5625 6.4375 4.109375q3.890625 1.53125 10.796875 3.4375q8.640625 2.34375 14.0625 4.625q5.4375 2.265625 9.3125 6.8125q3.890625 4.546875 4.046875 11.875q0 6.609375 -3.671875 11.890625q-3.65625 5.28125 -10.34375 8.28125q-6.671875 3.0 -15.3125 3.0zm121.42963 -44.578125q0 3.8125 -0.4375 8.0625l-64.25 0q0.734375 11.890625 8.140625 18.5625q7.40625 6.671875 17.96875 6.671875q8.65625 0 14.4375 -4.03125q5.796875 -4.03125 8.15625 -10.78125l14.359375 0q-3.21875 11.578125 -12.90625 18.84375q-9.671875 7.25 -24.046875 7.25q-11.4375 0 -20.453125 -5.125q-9.015625 -5.140625 -14.15625 -14.59375q-5.125 -9.453125 -5.125 -21.921875q0 -12.46875 4.984375 -21.84375q4.984375 -9.390625 14.0 -14.453125q9.015625 -5.0625 20.75 -5.0625q11.4375 0 20.234375 4.984375q8.8125 4.984375 13.578125 13.71875q4.765625 8.71875 4.765625 19.71875zm-13.796875 -2.78125q0 -7.625 -3.375 -13.125q-3.359375 -5.5 -9.15625 -8.359375q-5.796875 -2.859375 -12.828125 -2.859375q-10.125 0 -17.234375 6.453125q-7.109375 6.453125 -8.140625 17.890625l50.734375 0zm70.55188 -35.78125q14.65625 0 23.75 8.875q9.09375 8.859375 9.09375 25.578125l0 47.375l-13.1875 0l0 -45.46875q0 -12.015625 -6.015625 -18.390625q-6.015625 -6.390625 -16.4375 -6.390625q-10.546875 0 -16.78125 6.609375q-6.234375 6.59375 -6.234375 19.203125l0 44.4375l-13.34375 0l0 -80.375l13.34375 0l0 11.453125q3.953125 -6.171875 10.765625 -9.53125q6.828125 -3.375 15.046875 -3.375zm70.984985 12.453125l0 47.375q0 5.875 2.484375 8.296875q2.5 2.40625 8.65625 2.40625l9.828125 0l0 11.296875l-12.03125 0q-11.140625 0 -16.71875 -5.125q-5.578125 -5.140625 -5.578125 -16.875l0 -47.375l-10.40625 0l0 -11.0l10.40625 0l0 -20.234375l13.359375 0l0 20.234375l20.96875 0l0 11.0l-20.96875 0z" fill-rule="nonzero"/><path fill="#eeeeee" d="m405.85794 254.95738c0 -7.3580017 6.4160767 -13.32283 14.330688 -13.32283c7.9146423 0 14.330719 5.9648285 14.330719 13.32283c0 7.3579865 -6.4160767 13.32283 -14.330719 13.32283c-7.914612 0 -14.330688 -5.9648438 -14.330688 -13.32283z" fill-rule="evenodd"/><path fill="#4285f4" d="m405.85794 216.54875c0 -7.3580017 6.4160767 -13.322845 14.330688 -13.322845c7.9146423 0 14.330719 5.9648438 14.330719 13.322845c0 7.3579865 -6.4160767 13.32283 -14.330719 13.32283c-7.914612 0 -14.330688 -5.9648438 -14.330688 -13.32283z" fill-rule="evenodd"/><path fill="#eeeeee" d="m405.85925 178.14142c0 -7.3580017 6.4160767 -13.32283 14.330688 -13.32283c7.9146423 0 14.330719 5.9648285 14.330719 13.32283c0 7.3580017 -6.4160767 13.322845 -14.330719 13.322845c-7.914612 0 -14.330688 -5.9648438 -14.330688 -13.322845z" fill-rule="evenodd"/><path fill="#eeeeee" d="m405.85794 139.73148c0 -7.3580017 6.4160767 -13.322838 14.330688 -13.322838c7.9146423 0 14.330719 5.964836 14.330719 13.322838c0 7.3580017 -6.4160767 13.32283 -14.330719 13.32283c-7.914612 0 -14.330688 -5.9648285 -14.330688 -13.32283z" fill-rule="evenodd"/><path fill="#eeeeee" d="m405.85794 101.32284c0 -7.3580017 6.4160767 -13.322838 14.330688 -13.322838c7.9146423 0 14.330719 5.964836 14.330719 13.322838c0 7.357994 -6.4160767 13.32283 -14.330719 13.32283c-7.914612 0 -14.330688 -5.964836 -14.330688 -13.32283z" fill-rule="evenodd"/><path fill="#eeeeee" d="m489.09814 254.97266c0 -7.3580017 6.4160767 -13.32283 14.330688 -13.32283c7.9146423 0 14.330688 5.9648285 14.330688 13.32283c0 7.3580017 -6.416046 13.322845 -14.330688 13.322845c-7.914612 0 -14.330688 -5.9648438 -14.330688 -13.322845z" fill-rule="evenodd"/><path fill="#eeeeee" d="m489.09814 216.55959c0 -7.3580017 6.4160767 -13.32283 14.330688 -13.32283c7.9146423 0 14.330688 5.9648285 14.330688 13.32283c0 7.3580017 -6.416046 13.32283 -14.330688 13.32283c-7.914612 0 -14.330688 -5.9648285 -14.330688 -13.32283z" fill-rule="evenodd"/><path fill="#4285f4" d="m489.10077 178.1452c0 -7.3580017 6.4160767 -13.32283 14.330688 -13.32283c7.9146423 0 14.3307495 5.9648285 14.3307495 13.32283c0 7.3580017 -6.416107 13.32283 -14.3307495 13.32283c-7.914612 0 -14.330688 -5.9648285 -14.330688 -13.32283z" fill-rule="evenodd"/><path fill="#eeeeee" d="m489.09683 139.73344c0 -7.3580017 6.4160767 -13.32283 14.330688 -13.32283c7.9146423 0 14.330719 5.9648285 14.330719 13.32283c0 7.3580017 -6.4160767 13.32283 -14.330719 13.32283c-7.914612 0 -14.330688 -5.9648285 -14.330688 -13.32283z" fill-rule="evenodd"/><path fill="#eeeeee" d="m572.3383 254.94951c0 -7.3580017 6.4160767 -13.322845 14.3307495 -13.322845c7.914612 0 14.330688 5.9648438 14.330688 13.322845c0 7.3579865 -6.4160767 13.32283 -14.330688 13.32283c-7.914673 0 -14.3307495 -5.9648438 -14.3307495 -13.32283z" fill-rule="evenodd"/><path fill="#00aaa7" d="m572.3383 216.55394c0 -7.3580017 6.4160767 -13.32283 14.3307495 -13.32283c7.914612 0 14.330688 5.9648285 14.330688 13.32283c0 7.3580017 -6.4160767 13.32283 -14.330688 13.32283c-7.914673 0 -14.3307495 -5.9648285 -14.3307495 -13.32283z" fill-rule="evenodd"/><path fill="#eeeeee" d="m572.3449 178.15042c0 -7.3580017 6.4160767 -13.32283 14.330688 -13.32283c7.914673 0 14.3307495 5.9648285 14.3307495 13.32283c0 7.3580017 -6.4160767 13.32283 -14.3307495 13.32283c-7.914612 0 -14.330688 -5.9648285 -14.330688 -13.32283z" fill-rule="evenodd"/><path fill="#eeeeee" d="m655.57855 254.98404c0 -7.3580017 6.4160767 -13.32283 14.330688 -13.32283c7.914673 0 14.3307495 5.9648285 14.3307495 13.32283c0 7.3580017 -6.4160767 13.322845 -14.3307495 13.322845c-7.914612 0 -14.330688 -5.9648438 -14.330688 -13.322845z" fill-rule="evenodd"/><path fill="#00aaa7" d="m655.57855 216.5681c0 -7.3580017 6.4160767 -13.32283 14.330688 -13.32283c7.914673 0 14.3307495 5.9648285 14.3307495 13.32283c0 7.3580017 -6.4160767 13.32283 -14.3307495 13.32283c-7.914612 0 -14.330688 -5.9648285 -14.330688 -13.32283z" fill-rule="evenodd"/><path fill="#f1c232" d="m655.57855 178.15215c0 -7.3579865 6.4160767 -13.32283 14.330688 -13.32283c7.914673 0 14.3307495 5.9648438 14.3307495 13.32283c0 7.3580017 -6.4160767 13.322845 -14.3307495 13.322845c-7.914612 0 -14.330688 -5.9648438 -14.330688 -13.322845z" fill-rule="evenodd"/><path fill="#eeeeee" d="m655.57855 139.7362c0 -7.3580017 6.4160767 -13.32283 14.330688 -13.32283c7.914673 0 14.3307495 5.9648285 14.3307495 13.32283c0 7.3580017 -6.4160767 13.32283 -14.3307495 13.32283c-7.914612 0 -14.330688 -5.9648285 -14.330688 -13.32283z" fill-rule="evenodd"/><path fill="#eeeeee" d="m738.8187 254.96194c0 -7.3580017 6.4160767 -13.322845 14.3307495 -13.322845c7.914612 0 14.330688 5.9648438 14.330688 13.322845c0 7.3580017 -6.4160767 13.322815 -14.330688 13.322815c-7.914673 0 -14.3307495 -5.964813 -14.3307495 -13.322815z" fill-rule="evenodd"/><path fill="#00aaa7" d="m738.8187 216.55463c0 -7.3580017 6.4160767 -13.32283 14.3307495 -13.32283c7.914612 0 14.330688 5.9648285 14.330688 13.32283c0 7.3580017 -6.4160767 13.32283 -14.330688 13.32283c-7.914673 0 -14.3307495 -5.9648285 -14.3307495 -13.32283z" fill-rule="evenodd"/><path fill="#eeeeee" d="m738.8187 178.14731c0 -7.3579865 6.4160767 -13.32283 14.3307495 -13.32283c7.914612 0 14.330688 5.9648438 14.330688 13.32283c0 7.3580017 -6.4160767 13.322845 -14.330688 13.322845c-7.914673 0 -14.3307495 -5.9648438 -14.3307495 -13.322845z" fill-rule="evenodd"/><path fill="#f1c232" d="m738.8187 139.74c0 -7.3580017 6.4160767 -13.322838 14.3307495 -13.322838c7.914612 0 14.330688 5.964836 14.330688 13.322838c0 7.3580017 -6.4160767 13.32283 -14.330688 13.32283c-7.914673 0 -14.3307495 -5.9648285 -14.3307495 -13.32283z" fill-rule="evenodd"/><path fill="#eeeeee" d="m738.8187 101.33416c0 -7.3580017 6.4160767 -13.322838 14.3307495 -13.322838c7.914612 0 14.330688 5.964836 14.330688 13.322838c0 7.3580017 -6.4160767 13.322838 -14.330688 13.322838c-7.914673 0 -14.3307495 -5.964836 -14.3307495 -13.322838z" fill-rule="evenodd"/><path fill="#eeeeee" d="m322.6136 254.97495c0 -7.3580017 6.4160767 -13.322845 14.330719 -13.322845c7.9146423 0 14.330719 5.9648438 14.330719 13.322845c0 7.3580017 -6.4160767 13.322845 -14.330719 13.322845c-7.9146423 0 -14.330719 -5.9648438 -14.330719 -13.322845z" fill-rule="evenodd"/><path fill="#eeeeee" d="m322.61884 216.55698c0 -7.3580017 6.416107 -13.322845 14.330719 -13.322845c7.9146423 0 14.330719 5.9648438 14.330719 13.322845c0 7.3579865 -6.4160767 13.32283 -14.330719 13.32283c-7.914612 0 -14.330719 -5.9648438 -14.330719 -13.32283z" fill-rule="evenodd"/><path fill="#4285f4" d="m322.6162 178.13899c0 -7.3579865 6.4160767 -13.32283 14.330719 -13.32283c7.9146423 0 14.330719 5.9648438 14.330719 13.32283c0 7.3580017 -6.4160767 13.322845 -14.330719 13.322845c-7.9146423 0 -14.330719 -5.9648438 -14.330719 -13.322845z" fill-rule="evenodd"/><path fill="#000000" fill-opacity="0.0" d="m96.0 179.34283l210.33072 0l0 192.8504l-210.33072 0z" fill-rule="evenodd"/><path fill="#595959" d="m132.55908 310.54596q0 -20.40625 9.203125 -36.703125q9.203125 -16.296875 25.09375 -25.5q15.90625 -9.203125 35.3125 -9.203125q22.796875 0 39.796875 11.0q17.0 11.0 24.796875 31.203125l-21.796875 0q-5.796875 -12.59375 -16.703125 -19.390625q-10.890625 -6.8125 -26.09375 -6.8125q-14.609375 0 -26.203125 6.8125q-11.59375 6.796875 -18.203125 19.296875q-6.59375 12.5 -6.59375 29.296875q0 16.59375 6.59375 29.09375q6.609375 12.5 18.203125 19.3125q11.59375 6.796875 26.203125 6.796875q15.203125 0 26.09375 -6.703125q10.90625 -6.703125 16.703125 -19.296875l21.796875 0q-7.796875 20.0 -24.796875 30.90625q-17.0 10.890625 -39.796875 10.890625q-19.40625 0 -35.3125 -9.09375q-15.890625 -9.109375 -25.09375 -25.3125q-9.203125 -16.203125 -9.203125 -36.59375z" fill-rule="nonzero"/></g></svg>